# xmcd
#
# Track frame offsets: 
#        150
#        21318
#        34382
#        56724
#        63826
#        93669
#        114159
#        135496
#        140996
#        170956
#        195431
#        219016
#        229372
#        251475
#
# Disc length: 3518 seconds
#
# Revision: 0
# Processed by: cddbd v1.5PL3 Copyright (c) Steve Scherf et al.
# Submitted via: ExactAudioCopy v0.95a3
#
DISCID=ce0dbc0e
DTITLE=Captain Beefheart and The Magic Band - 1977-11-25 Bottom Line - N
DTITLE=ew York City,NY Late Show
DYEAR=1977
DGENRE=blues
TTITLE0=Lo Yo Yo
TTITLE1=I Wanna Find Me A Woman That'll Hold My Big Toe Till I Have To
TTITLE1=Go
TTITLE2=Floppy Boot Stomp
TTITLE3=A Carrot Is A Close As A Rabbit
TTITLE4=China Pig
TTITLE5=Nowadays Woman's Gotta Hit A Man
TTITLE6=Grow Fins
TTITLE7=Intros
TTITLE8=Click Clack
TTITLE9=Pachuco Cadaver
TTITLE10=Veterans Day Poppies
TTITLE11=The Blimp
TTITLE12=Big Eyed Beans
TTITLE13=Little Golden Birdies
EXTD=
EXTT0=
EXTT1=
EXTT2=
EXTT3=
EXTT4=
EXTT5=
EXTT6=
EXTT7=
EXTT8=
EXTT9=
EXTT10=
EXTT11=
EXTT12=
EXTT13=
PLAYORDER=
